<?xml version="1.0" encoding="iso-8859-1"?>
<!-- Generator: Adobe Illustrator 19.0.0, SVG Export Plug-In . SVG Version: 6.00 Build 0)  -->
<svg version="1.1" id="Layer_1" xmlns="http://www.w3.org/2000/svg" xmlns:xlink="http://www.w3.org/1999/xlink" x="0px" y="0px"
	 viewBox="0 0 356.92 356.92" style="enable-background:new 0 0 356.92 356.92;" xml:space="preserve">
<g>
	<path style="fill:#FF7876;" d="M329.419,282.653H27.5c-11.046,0-20-8.954-20-20V94.267c0-11.046,8.954-20,20-20h301.919
		c11.046,0,20,8.954,20,20v168.386C349.419,273.699,340.465,282.653,329.419,282.653z"/>
	<rect x="46.46" y="112.267" style="fill:#FFDB77;" width="80" height="53"/>
	<g>
		<g>
			<path style="fill:#FFFFFF;" d="M94.87,256.428H49.96c-2.761,0-5-2.239-5-5V230.21c0-2.761,2.239-5,5-5h44.91c2.761,0,5,2.239,5,5
				v21.219C99.87,254.19,97.631,256.428,94.87,256.428z"/>
		</g>
		<g>
			<path style="fill:#FFFFFF;" d="M165.566,256.428h-44.91c-2.761,0-5-2.239-5-5V230.21c0-2.761,2.239-5,5-5h44.91
				c2.761,0,5,2.239,5,5v21.219C170.566,254.19,168.328,256.428,165.566,256.428z"/>
		</g>
		<g>
			<path style="fill:#FFFFFF;" d="M236.263,256.428h-44.91c-2.761,0-5-2.239-5-5V230.21c0-2.761,2.239-5,5-5h44.91
				c2.762,0,5,2.239,5,5v21.219C241.263,254.19,239.024,256.428,236.263,256.428z"/>
		</g>
		<g>
			<path style="fill:#FFFFFF;" d="M306.96,256.428h-44.91c-2.761,0-5-2.239-5-5V230.21c0-2.761,2.239-5,5-5h44.91
				c2.761,0,5,2.239,5,5v21.219C311.96,254.19,309.721,256.428,306.96,256.428z"/>
		</g>
	</g>
	<rect x="183.46" y="109.6" style="fill:#FFFFFF;" width="128.5" height="22.706"/>
	<g>
		<path style="fill:#414042;" d="M329.42,66.767H27.5c-15.163,0-27.5,12.336-27.5,27.5v168.386c0,15.163,12.337,27.5,27.5,27.5
			h301.92c15.163,0,27.5-12.337,27.5-27.5V94.267C356.92,79.103,344.583,66.767,329.42,66.767z M341.92,262.653
			c0,6.893-5.608,12.5-12.5,12.5H27.5c-6.893,0-12.5-5.607-12.5-12.5V94.267c0-6.893,5.607-12.5,12.5-12.5h301.92
			c6.892,0,12.5,5.607,12.5,12.5V262.653z"/>
		<path style="fill:#414042;" d="M126.46,104.767h-80c-4.142,0-7.5,3.357-7.5,7.5v53c0,4.143,3.358,7.5,7.5,7.5h80
			c4.142,0,7.5-3.357,7.5-7.5v-53C133.96,108.124,130.602,104.767,126.46,104.767z M118.96,157.767h-65v-38h65V157.767z"/>
		<path style="fill:#414042;" d="M311.96,102.1h-128.5c-4.142,0-7.5,3.357-7.5,7.5v22.706c0,4.143,3.358,7.5,7.5,7.5h128.5
			c4.143,0,7.5-3.357,7.5-7.5V109.6C319.46,105.457,316.102,102.1,311.96,102.1z M304.46,124.806h-113.5V117.1h113.5V124.806z"/>
		<path style="fill:#414042;" d="M311.96,152.767h-128.5c-4.142,0-7.5,3.357-7.5,7.5s3.358,7.5,7.5,7.5h128.5
			c4.143,0,7.5-3.357,7.5-7.5S316.102,152.767,311.96,152.767z"/>
		<path style="fill:#414042;" d="M311.96,179.767h-128.5c-4.142,0-7.5,3.357-7.5,7.5s3.358,7.5,7.5,7.5h128.5
			c4.143,0,7.5-3.357,7.5-7.5S316.102,179.767,311.96,179.767z"/>
	</g>
</g>
<g>
</g>
<g>
</g>
<g>
</g>
<g>
</g>
<g>
</g>
<g>
</g>
<g>
</g>
<g>
</g>
<g>
</g>
<g>
</g>
<g>
</g>
<g>
</g>
<g>
</g>
<g>
</g>
<g>
</g>
</svg>
