<?xml version="1.0" encoding="iso-8859-1"?>
<!-- Generator: Adobe Illustrator 19.0.0, SVG Export Plug-In . SVG Version: 6.00 Build 0)  -->
<svg version="1.1" id="Layer_1" xmlns="http://www.w3.org/2000/svg" xmlns:xlink="http://www.w3.org/1999/xlink" x="0px" y="0px"
	 viewBox="0 0 511.978 511.978" style="enable-background:new 0 0 511.978 511.978;" xml:space="preserve">
<path style="fill:#FF9F99;" d="M281.009,425.239c24.124-31.215,64.597-94.729,64.597-169.25c0-6.272-0.307-12.638-0.939-19.456
	l-0.785-8.439l7.467-4.019c56.747-30.532,120.141-32.085,132.267-32.085c2.082,0,3.2,0.043,3.2,0.043l11.947,0.435l0.401,11.955
	c0.145,4.574,2.748,112.768-64.009,179.516c-42.112,42.129-100.745,56.875-142.507,61.833l-30.285,3.601L281.009,425.239z"/>
<path style="fill:#FFB7B2;" d="M252.516,446.735l4.045-12.143l-4.369,12.032l-4.489-1.536l-2.193-2.389
	c-13.21-14.43-79.104-91.196-79.104-186.709c0-102.929,77.073-184.627,80.358-188.049l9.242-9.66l9.242,9.66
	c3.285,3.422,80.358,85.12,80.358,188.049c0,99.038-71.526,178.586-79.684,187.332l-5.606,6.007L252.516,446.735z"/>
<g>
	<path style="fill:#FF877F;" d="M153.119,220.362c-13.73-6.707-28.314-12.254-43.366-16.478l-10.598-2.978l1.357-10.923
		c4.813-38.818,15.258-66.441,15.701-67.601l4.821-12.621l12.339,5.504c0.922,0.41,22.903,10.291,49.835,29.798l8.286,6.007
		l-4.036,9.404c-7.211,16.819-12.655,33.971-16.196,51.004l-3.354,16.128L153.119,220.362z"/>
	<path style="fill:#FF877F;" d="M340.708,211.334c-3.533-16.947-8.969-34.039-16.154-50.816l-4.028-9.412l8.286-5.999
		c26.906-19.49,48.87-29.414,49.792-29.833l12.356-5.53l4.83,12.646c0.444,1.161,10.863,28.757,15.684,67.558l1.357,10.931
		l-10.615,2.97c-15.283,4.275-29.875,9.788-43.375,16.375l-14.788,7.228L340.708,211.334z"/>
</g>
<path style="fill:#FF9F99;" d="M219.364,445.77c-41.771-4.958-100.395-19.712-142.507-61.833
	C10.101,317.19,12.703,208.996,12.849,204.422l0.367-11.955l11.981-0.435c0,0,1.118-0.043,3.2-0.043
	c12.1,0,75.349,1.553,132.258,32.205l7.45,4.011l-0.777,8.431c-0.614,6.758-0.922,13.099-0.922,19.354
	c0,74.522,40.474,138.035,64.597,169.25l18.654,24.132L219.364,445.77z"/>
<path style="fill:#573A32;" d="M487.174,179.232l-3.558-0.043c-8.277,0-31.258,0.802-59.674,6.332
	c-5.086-38.4-15.386-65.664-16.239-67.84c-2.526-6.511-7.612-11.699-14.063-14.37c-3.14-1.297-6.468-1.946-9.796-1.946
	c-3.516,0-7.023,0.725-10.308,2.167c-1.877,0.828-22.554,10.146-48.35,28.305c-22.605-43.008-48.759-70.733-50.679-72.738
	c-4.838-5.052-11.52-7.902-18.5-7.902c-6.98,0-13.662,2.85-18.492,7.893c-1.92,2.005-28.109,29.773-50.722,72.823
	c-25.737-18.108-46.438-27.563-48.307-28.39c-3.285-1.442-6.793-2.167-10.308-2.167c-3.328,0-6.656,0.649-9.796,1.946
	c-6.451,2.671-11.529,7.868-14.063,14.37c-0.845,2.176-11.145,29.431-16.222,67.84c-28.442-5.538-51.413-6.323-59.691-6.323
	l-3.567,0.043c-13.474,0.461-24.363,11.307-24.789,24.781c-0.154,4.804-2.876,118.349,67.746,188.979
	c64.521,64.521,165.769,67.789,185.412,67.789l2.628-0.034c0.051,0,0.102,0.034,0.154,0.034c0.051,0,0.102-0.034,0.154-0.034
	l2.628,0.034c19.644,0,120.892-3.268,185.412-67.789c70.63-70.622,67.9-184.175,67.746-188.979
	C511.537,190.538,500.648,179.701,487.174,179.232z M383.844,126.956c0,0,10.257,26.863,14.942,64.563
	c-14.831,4.156-30.242,9.737-45.542,17.203c-3.968-19.055-9.916-36.915-16.922-53.248
	C362.468,136.531,383.844,126.956,383.844,126.956z M128.168,126.956c0,0,21.376,9.523,47.539,28.467
	c-7.023,16.384-12.996,34.313-16.964,53.436c-15.3-7.467-30.686-13.133-45.525-17.297
	C117.902,153.845,128.168,126.956,128.168,126.956z M85.902,374.892C22.295,311.285,25.64,204.823,25.64,204.823
	s0.964-0.034,2.756-0.034c13.414,0,73.199,2.133,126.182,30.677c-0.614,6.741-0.973,13.577-0.973,20.523
	c0,78.805,42.769,145.374,67.268,177.075C184.164,428.704,126.402,415.383,85.902,374.892z M256.561,434.583
	c-0.495-0.162-0.981-0.316-1.613-0.546c-9.003-9.822-75.742-85.76-75.742-178.048c0-98.97,76.8-179.2,76.8-179.2
	s76.8,80.23,76.8,179.2C332.806,350.956,262.286,428.456,256.561,434.583z M426.109,374.892
	c-40.491,40.491-98.261,53.811-134.963,58.172c24.491-31.701,67.26-98.27,67.26-177.075c0-6.989-0.358-13.867-0.99-20.642
	c52.983-28.518,112.794-30.558,126.199-30.558c1.792,0,2.756,0.026,2.756,0.026S489.708,311.285,426.109,374.892z"/>
<g>
</g>
<g>
</g>
<g>
</g>
<g>
</g>
<g>
</g>
<g>
</g>
<g>
</g>
<g>
</g>
<g>
</g>
<g>
</g>
<g>
</g>
<g>
</g>
<g>
</g>
<g>
</g>
<g>
</g>
</svg>
